<svg id="Capa_1" data-name="Capa 1" xmlns="http://www.w3.org/2000/svg" viewBox="0 0 309 305"><defs><style>.cls-1{fill:#f1c310;}.cls-2{fill:#e47723;}</style></defs><title>logo navbar2</title><ellipse class="cls-1" cx="154.5" cy="152.5" rx="151.65" ry="149.82"/><path class="cls-2" d="M179.11,74.13a12.6,12.6,0,0,0-6.26,4.21,16.35,16.35,0,0,0-3,7.47,70.22,70.22,0,0,0-.75,11.12v12.53a121.86,121.86,0,0,1-.84,15.32,31.22,31.22,0,0,1-3.36,11.13,19.91,19.91,0,0,1-7.29,7.47A40.7,40.7,0,0,1,145,148a41,41,0,0,1,12.62,4.58,19.94,19.94,0,0,1,7.29,7.48,31.16,31.16,0,0,1,3.36,11.12,122,122,0,0,1,.84,15.33V199a70.13,70.13,0,0,0,.75,11.12,15.67,15.67,0,0,0,3,7.38,12.94,12.94,0,0,0,6.26,4.12,34.34,34.34,0,0,0,10.38,1.3v5.24h-.94a77,77,0,0,1-17.1-1.59,24,24,0,0,1-10.93-5.33,20.08,20.08,0,0,1-5.8-9.72A56.27,56.27,0,0,1,153,196.56V178.24a54.66,54.66,0,0,0-1.12-12,18.74,18.74,0,0,0-3.93-8.13,17.27,17.27,0,0,0-7.57-5A48.3,48.3,0,0,0,128.18,151v-6.17a54.5,54.5,0,0,0,12.34-2.43,18.21,18.21,0,0,0,7.66-4.76,16.8,16.8,0,0,0,3.83-8,60.75,60.75,0,0,0,1-12.06V99.18a57.39,57.39,0,0,1,1.68-15.05,19.32,19.32,0,0,1,5.89-9.72,25.37,25.37,0,0,1,11.21-5.23,81.83,81.83,0,0,1,17.67-1.59v5.23A34.31,34.31,0,0,0,179.11,74.13Z"/><circle cx="112.65" cy="124.77" r="9.31"/></svg>